<svg xmlns="http://www.w3.org/2000/svg" viewBox="0 0 213.88 219.27"><defs><style>.cls-1{fill:#F1563A;}</style></defs><g id="Layer_2" data-name="Layer 2"><g id="Layer_1-2" data-name="Layer 1"><path class="cls-1" d="M139,148c1.23-1.32,1.8-4.57,1.21-6.39-1.34-4.19-3-8.26-4.81-12.72h0a4.52,4.52,0,0,0-7.6-1.26l-1,1.11L108.41,149.9a2.69,2.69,0,0,1-4,0c-4.43-4.86-8.72-9.6-13.06-14.29q-32-34.64-64-69.26C22.42,61,16.91,57.62,9.86,61S-.11,70.42,0,78.6q.87,61.23,1.55,122.48c.08,7.56,2.7,13.24,9.17,16.54,6.14,3.13,12.61,1.81,16.68-4.15a101.4,101.4,0,0,0,8.75-15.87c6-13.5,11.7-27.12,17.39-40.76.71-1.72,1.43-3.43,2.14-5.14.52-1.25.66-3.52,0-4.4-.95-1.21-1.92-2.4-2.9-3.6-2-2.49-4.15-5-6.37-7.58l-.19-.22A4.83,4.83,0,0,0,38.12,137h0L23.87,168.29a0,0,0,0,1-.09,0V95.36a0,0,0,0,1,.08,0c25.89,28.25,48.15,52.56,74,80.82l3.63,3.95a4.55,4.55,0,0,0,6.69.09"/><path class="cls-1" d="M86.57,58.5l-5.36-6.84a4.46,4.46,0,0,0-7.61,1Q68.51,64.5,63.39,76.32a11.61,11.61,0,0,0-1.07,6.47,11.72,11.72,0,0,0,3.32,6.1c1.18,1.32,2.76,3,4.77,4.93l.06.06a6.84,6.84,0,0,0,11.14-2.52l.39-.93q3.34-7.84,6.71-15.75A16,16,0,0,0,86.57,58.5Z"/><path class="cls-1" d="M118.17,11.62l-6.9-9.38a5,5,0,0,0-8.39,0L96,11.62,87.92,22.56a7.17,7.17,0,0,0,0,8.27l8.06,11,6.9,9.37a5,5,0,0,0,8.39,0l6.9-9.37,8.06-11a7.17,7.17,0,0,0,0-8.27Z"/><path class="cls-1" d="M208.11,63.48A16,16,0,0,0,204.54,61l-.73-.35-.42-.17-.51-.19-.2-.06a10.58,10.58,0,0,0-7.76.39l-.38.17-.1,0a13,13,0,0,0-3.84,2.78L188.29,66q-4.51,4.33-8.87,8.89-4,4.14-7.84,8.37c-1.4,1.53-2.51,4.87-1.93,6.7.07.2.14.4.2.6q.9,2.71,1.93,5.4c.55,1.45,1.13,2.9,1.72,4.36l.3.75.45,1.1a5.76,5.76,0,0,0,9.48,1.78h0c2.66-2.81,5.29-5.57,8.11-8.53a.06.06,0,0,1,.1,0v72.72a.06.06,0,0,1-.11,0c-1.16-2.59-1.92-4.22-2.63-5.87q-23.46-54.36-46.93-108.71a5.54,5.54,0,0,0-6.9-3,5.41,5.41,0,0,0-2.55,1.81l-1.68,2.13-3.14,4-.75,1L126,61a8.57,8.57,0,0,0-1.13,8.68q29.2,67.71,58.4,135.4a53.5,53.5,0,0,0,2.92,5.69c4,6.77,9.19,9.34,15.68,7.87,6.13-1.39,10.58-6.68,11.58-14.05a54.73,54.73,0,0,0,.37-7.47q0-59.5,0-119C213.89,72.28,212.29,67.31,208.11,63.48Z"/></g></g></svg>